<?xml version="1.0" standalone="no"?>
<!DOCTYPE svg PUBLIC "-//W3C//DTD SVG 20010904//EN"
 "http://www.w3.org/TR/2001/REC-SVG-20010904/DTD/svg10.dtd">
<svg version="1.0" xmlns="http://www.w3.org/2000/svg"
 width="500.000000pt" height="500.000000pt" viewBox="0 0 500.000000 500.000000"
 preserveAspectRatio="xMidYMid meet">
<metadata>
Created by potrace 1.11, written by Peter Selinger 2001-2013
</metadata>
<g transform="translate(0.000000,500.000000) scale(0.100000,-0.100000)"
fill="#000000" stroke="none">
<path d="M2339 4996 c-2 -2 -38 -6 -79 -10 -41 -3 -86 -8 -100 -11 -14 -2 -54
-9 -90 -15 -374 -64 -743 -225 -1055 -458 -111 -83 -121 -92 -243 -207 -297
-281 -540 -681 -658 -1082 -14 -48 -27 -95 -29 -103 -2 -8 -8 -36 -14 -63 -6
-26 -14 -64 -17 -85 -3 -20 -8 -40 -9 -43 -2 -3 -7 -37 -10 -75 -4 -38 -10
-73 -13 -78 -12 -20 -9 -425 4 -536 13 -114 15 -129 34 -225 6 -27 12 -60 14
-72 14 -72 88 -303 121 -378 159 -360 312 -586 564 -835 265 -262 573 -455
926 -580 92 -32 289 -85 360 -96 22 -3 42 -7 45 -9 3 -2 35 -7 70 -10 36 -4
69 -9 74 -12 15 -9 426 -11 506 -2 106 12 163 19 180 24 8 2 31 6 51 9 193 29
488 131 706 246 97 51 309 186 348 221 11 10 49 41 85 70 83 66 258 243 336
339 265 327 437 693 519 1105 25 125 35 264 35 480 0 211 -5 283 -26 410 -148
910 -815 1681 -1697 1964 -92 29 -231 65 -297 76 -19 3 -42 8 -50 10 -8 2 -42
7 -75 11 -33 3 -69 8 -80 11 -24 5 -431 13 -436 9z"/>
</g>
</svg>
