<?xml version="1.0" standalone="no"?>
<!DOCTYPE svg PUBLIC "-//W3C//DTD SVG 20010904//EN"
 "http://www.w3.org/TR/2001/REC-SVG-20010904/DTD/svg10.dtd">
<svg version="1.0" xmlns="http://www.w3.org/2000/svg"
 width="347.000000pt" height="347.000000pt" viewBox="0 0 347.000000 347.000000"
 preserveAspectRatio="xMidYMid meet">
<metadata>
Created by potrace 1.14, written by Peter Selinger 2001-2017
</metadata>
<g transform="translate(0.000000,347.000000) scale(0.100000,-0.100000)"
fill="#000000" stroke="none">
<path d="M875 3301 c-177 -49 -299 -169 -346 -338 -18 -63 -19 -129 -19 -1207
0 -1242 -2 -1194 56 -1309 75 -146 225 -243 396 -254 213 -13 404 115 479 323
21 56 22 78 24 411 1 194 4 355 7 358 2 3 19 -16 35 -42 17 -27 65 -97 107
-158 42 -60 88 -127 101 -147 129 -195 410 -594 435 -618 154 -150 394 -178
583 -66 103 59 209 220 224 336 8 68 9 2258 0 2320 -18 138 -108 267 -237 341
-79 46 -137 60 -240 61 -211 0 -391 -139 -454 -350 -8 -30 -15 -57 -15 -60 1
-4 1 -169 0 -367 l-1 -360 -21 30 c-58 83 -273 396 -353 515 -51 74 -117 171
-147 215 -30 44 -66 102 -79 129 -54 108 -191 213 -315 241 -61 14 -161 12
-220 -4z"/>
</g>
</svg>
